<svg width="20" height="20" viewBox="0 0 20 20" fill="none" xmlns="http://www.w3.org/2000/svg">
<path d="M14.1667 10.8332L10.8334 18.3332C10.1703 18.3332 9.53443 18.0698 9.06559 17.601C8.59675 17.1322 8.33336 16.4963 8.33336 15.8332V12.4999H3.61669C3.3751 12.5026 3.13581 12.4528 2.91538 12.3539C2.69496 12.255 2.49868 12.1093 2.34014 11.927C2.18161 11.7446 2.0646 11.53 1.99724 11.298C1.92988 11.066 1.91377 10.8221 1.95003 10.5832L3.10003 3.08323C3.16029 2.68581 3.36216 2.32355 3.66844 2.06322C3.97471 1.80289 4.36475 1.66202 4.76669 1.66656H14.1667M14.1667 10.8332V1.66656M14.1667 10.8332H16.3917C16.8633 10.8416 17.3216 10.6764 17.6795 10.3692C18.0375 10.062 18.2701 9.63401 18.3334 9.16656V3.33323C18.2701 2.86578 18.0375 2.43781 17.6795 2.13058C17.3216 1.82334 16.8633 1.65822 16.3917 1.66656H14.1667" stroke="#25282A" stroke-width="1.5" stroke-linecap="round" stroke-linejoin="round"/>
</svg>
