<svg width="16" height="17" viewBox="0 0 16 17" fill="none" xmlns="http://www.w3.org/2000/svg">
<g clip-path="url(#clip0_97_2487)">
<path d="M15.3335 3.16663V7.16663H11.3335" stroke="#A8045E" stroke-width="2" stroke-linecap="round" stroke-linejoin="round"/>
<path d="M0.666504 13.8334V9.83337H4.6665" stroke="#A8045E" stroke-width="2" stroke-linecap="round" stroke-linejoin="round"/>
<path d="M2.33984 6.50001C2.67795 5.54453 3.25259 4.69028 4.01015 4.01696C4.7677 3.34363 5.68348 2.87319 6.67203 2.64952C7.66058 2.42584 8.68967 2.45624 9.6633 2.73786C10.6369 3.01948 11.5233 3.54315 12.2398 4.26001L15.3332 7.16668M0.666504 9.83334L3.75984 12.74C4.47634 13.4569 5.36275 13.9805 6.33638 14.2622C7.31 14.5438 8.3391 14.5742 9.32765 14.3505C10.3162 14.1268 11.232 13.6564 11.9895 12.9831C12.7471 12.3097 13.3217 11.4555 13.6598 10.5" stroke="#A8045E" stroke-width="1.5" stroke-linecap="round" stroke-linejoin="round"/>
</g>
<defs>
<clipPath id="clip0_97_2487">
<rect width="16" height="16" fill="white" transform="translate(0 0.5)"/>
</clipPath>
</defs>
</svg>
