<svg width="32" height="32" viewBox="0 0 32 32" fill="none" xmlns="http://www.w3.org/2000/svg">
<path d="M15.5517 3.57497C15.7351 3.20339 16.265 3.20339 16.4484 3.57497L20.0039 10.7779C20.0766 10.9253 20.2172 11.0275 20.3799 11.0513L28.3315 12.2135C28.7415 12.2735 28.9049 12.7774 28.6081 13.0665L22.8551 18.6698C22.7372 18.7847 22.6834 18.9503 22.7112 19.1125L24.0688 27.028C24.1389 27.4365 23.7101 27.7479 23.3433 27.555L16.2328 23.8157C16.0871 23.7391 15.913 23.7391 15.7674 23.8157L8.6569 27.555C8.29008 27.7479 7.86131 27.4365 7.93137 27.028L9.28896 19.1125C9.31679 18.9503 9.26296 18.7847 9.14502 18.6698L3.39209 13.0665C3.09529 12.7774 3.25868 12.2735 3.66864 12.2135L11.6203 11.0513C11.7829 11.0275 11.9235 10.9253 11.9963 10.7779L15.5517 3.57497Z" fill="#FFD700"/>
</svg>
