<svg width="16" height="16" viewBox="0 0 16 16" fill="none" xmlns="http://www.w3.org/2000/svg">
<path d="M7.55181 2.24169C7.73523 1.87011 8.2651 1.87011 8.44852 2.24169L9.94394 5.27125C10.0167 5.41868 10.1573 5.52091 10.32 5.54468L13.6649 6.0336C14.0749 6.09352 14.2383 6.59744 13.9415 6.88652L11.5219 9.24321C11.404 9.35808 11.3501 9.52365 11.378 9.68591L11.9489 13.0147C12.0189 13.4232 11.5902 13.7347 11.2233 13.5417L8.23289 11.9691C8.0872 11.8925 7.91313 11.8925 7.76744 11.9691L4.77698 13.5417C4.41016 13.7347 3.98139 13.4232 4.05145 13.0147L4.62237 9.68591C4.6502 9.52365 4.59637 9.35808 4.47843 9.24321L2.05884 6.88652C1.76204 6.59744 1.92543 6.09352 2.33539 6.0336L5.68035 5.54468C5.84302 5.52091 5.98362 5.41868 6.05639 5.27125L7.55181 2.24169Z" fill="#FFD700"/>
</svg>
