<svg width="18" height="18" viewBox="0 0 18 18" fill="none" xmlns="http://www.w3.org/2000/svg">
<g clip-path="url(#clip0_76_2417)">
<g clip-path="url(#clip1_76_2417)">
<path d="M8.42105 1.8196C9.98496 1.71434 11.5789 2.03013 12.9774 2.73689C15.0526 3.75945 16.7068 5.59404 17.4737 7.75945C17.8195 8.72186 18 9.72937 18 10.7519V14.5264C18 14.6767 18 14.8422 17.9699 14.9925C17.8797 15.3685 17.609 15.7143 17.2481 15.8797C16.9925 16.0001 16.7068 16.0151 16.4511 15.97C15.8797 15.8647 15.4286 15.3234 15.4286 14.7369V11.2181C15.4436 10.8873 15.4436 10.5264 15.2632 10.2407C14.9774 9.6993 14.2556 9.44366 13.6992 9.66922C13.218 9.83464 12.8722 10.3309 12.8571 10.8422V14.4061C12.8571 14.6316 12.8722 14.8572 12.797 15.0677C12.6767 15.4888 12.3308 15.8196 11.9098 15.9399C11.3534 16.0903 10.7218 15.8497 10.4511 15.3384C10.2556 15.0376 10.2707 14.6617 10.2857 14.3158V10.767C10.2707 10.1655 9.77444 9.62411 9.18797 9.54892C8.79699 9.48877 8.39098 9.62411 8.10526 9.89479C7.84962 10.1354 7.71429 10.4813 7.71429 10.8271V14.2707C7.71429 14.5564 7.74436 14.8572 7.6391 15.1279C7.47368 15.6241 6.97744 15.985 6.45113 15.97C5.90977 16.0001 5.38346 15.6241 5.21805 15.1279C5.12782 14.8722 5.14286 14.6166 5.14286 14.3459V10.782C5.14286 10.1955 4.67669 9.65419 4.10526 9.54892C3.57895 9.44366 3.00752 9.6993 2.73684 10.1805C2.63158 10.376 2.57143 10.6016 2.57143 10.8271V14.6918C2.57143 15.0677 2.40602 15.4437 2.1203 15.6843C1.68421 16.0602 0.977444 16.0903 0.526316 15.7444C0.195489 15.5188 0 15.1279 0 14.7219V10.8121C0 9.3384 0.37594 7.86471 1.08271 6.55644C1.65414 5.48877 2.45113 4.5414 3.3985 3.78953C4.79699 2.61659 6.58647 1.92486 8.42105 1.8196Z" fill="#717C7D"/>
</g>
</g>
<defs>
<clipPath id="clip0_76_2417">
<rect width="18" height="18" fill="white"/>
</clipPath>
<clipPath id="clip1_76_2417">
<rect width="18" height="14.194" fill="white" transform="translate(0 1.80005)"/>
</clipPath>
</defs>
</svg>
