<svg width="18" height="19" viewBox="0 0 18 19" fill="none" xmlns="http://www.w3.org/2000/svg">
<g clip-path="url(#clip0_97_2589)">
<path d="M9 18.5C13.9706 18.5 18 14.4706 18 9.5C18 4.52944 13.9706 0.5 9 0.5C4.02944 0.5 0 4.52944 0 9.5C0 14.4706 4.02944 18.5 9 18.5Z" fill="#345D9D"/>
<path d="M13.2493 12.943H8.23716L9.17444 9.78318L10.6127 9.36916L10.9175 8.32329L9.47924 8.75891L11.0045 3.57215V3.50674C11.0045 3.35434 10.8953 3.24512 10.7429 3.24512H8.80359C8.65119 3.24512 8.52038 3.35434 8.47656 3.50674L6.68964 9.63015L5.25135 10.0658L4.92432 11.09L6.36261 10.6544L5.07672 15.0347H12.7254C12.8778 15.0347 13.0086 14.9255 13.0524 14.7953L13.4881 13.2916V13.2262C13.5097 13.0516 13.4011 12.943 13.2487 12.943H13.2493Z" fill="white"/>
</g>
<defs>
<clipPath id="clip0_97_2589">
<rect width="18" height="18" fill="white" transform="translate(0 0.5)"/>
</clipPath>
</defs>
</svg>
