<svg width="18" height="18" viewBox="0 0 18 18" fill="none" xmlns="http://www.w3.org/2000/svg">
<g clip-path="url(#clip0_204_1543)">
<path d="M9 18C13.9706 18 18 13.9706 18 9C18 4.02944 13.9706 0 9 0C4.02944 0 0 4.02944 0 9C0 13.9706 4.02944 18 9 18Z" fill="#C2A633"/>
<path d="M8.89095 4.13272H6.0938V8.46657H4.94446V9.52807H6.0938V13.8609H9.35344C9.35344 13.8609 13.936 14.245 13.936 9.07828C13.936 3.91153 9.55241 4.13272 8.89095 4.13272ZM9.2783 12.0628H7.92894V9.52807H9.95245V8.46657H7.92894V5.93188H9.2148C9.69528 5.93188 12.1157 6.12555 12.1188 9.11426C12.1231 12.103 9.62437 12.0638 9.27724 12.0638L9.2783 12.0628Z" fill="white"/>
</g>
<defs>
<clipPath id="clip0_204_1543">
<rect width="18" height="18" fill="white"/>
</clipPath>
</defs>
</svg>
