<svg width="18" height="18" viewBox="0 0 18 18" fill="none" xmlns="http://www.w3.org/2000/svg">
<g clip-path="url(#clip0_204_1205)">
<path d="M5.08866 1.20099C9.39185 1.19964 13.6953 1.19964 17.9991 1.20099C18.0004 2.59192 18.0004 3.98267 17.9991 5.37315C13.6958 5.3745 9.3923 5.3745 5.08866 5.37315C5.08731 3.98222 5.08731 2.59147 5.08866 1.20099Z" fill="#717C7D"/>
<path d="M0.00539992 6.94281C1.39372 6.93561 2.78231 6.93561 4.17108 6.94281C4.17828 8.33113 4.17828 9.71972 4.17108 11.1085C2.78231 11.1156 1.39381 11.1158 0.00539992 11.1088C-0.00179997 9.72026 -0.00179997 8.33158 0.00539992 6.94281Z" fill="#717C7D"/>
<path d="M5.0919 6.94282C8.19784 6.93625 11.3036 6.93625 14.4092 6.94282C14.4158 8.33114 14.4158 9.71973 14.4092 11.1085C11.3032 11.115 8.19748 11.115 5.0919 11.1085C5.08542 9.72009 5.08542 8.33159 5.0919 6.94282Z" fill="#717C7D"/>
<path d="M5.09572 12.6859C6.4817 12.6709 7.86741 12.6709 9.25294 12.6859C9.26734 14.071 9.26752 15.4567 9.25357 16.8431C7.86759 16.8568 6.48188 16.8565 5.09644 16.8424C5.08204 15.4574 5.08177 14.072 5.09572 12.6859Z" fill="#717C7D"/>
</g>
<defs>
<clipPath id="clip0_204_1205">
<rect width="18" height="15.6532" fill="white" transform="translate(0 1.20001)"/>
</clipPath>
</defs>
</svg>
