<svg width="18" height="19" viewBox="0 0 18 19" fill="none" xmlns="http://www.w3.org/2000/svg">
<g clip-path="url(#clip0_204_2563)">
<path d="M5.50423 8.06374L8.99982 4.56822L12.4972 8.06554L14.5312 6.03154L8.99982 0.5L3.47031 6.02974L5.50423 8.06374ZM0 9.49971L2.03406 7.46564L4.06798 9.49957L2.03392 11.5336L0 9.49971ZM5.50423 10.9362L8.99982 14.4317L12.4971 10.9345L14.5322 12.9674L14.5312 12.9685L8.99982 18.5L3.47017 12.9704L3.46729 12.9675L5.50423 10.9363M13.932 9.50086L15.9661 7.46679L18 9.50072L15.9659 11.5348L13.932 9.50086Z" fill="#F3BA2F"/>
<path d="M11.0631 9.49901H11.064L9.00001 7.43506L7.4747 8.96038H7.47462L7.29938 9.1357L6.93794 9.49721L6.93506 9.50002L6.93794 9.50297L9.00001 11.5651L11.064 9.50117L11.065 9.50002L11.0631 9.49901Z" fill="#F3BA2F"/>
</g>
<defs>
<clipPath id="clip0_204_2563">
<rect width="18" height="18" fill="white" transform="translate(0 0.5)"/>
</clipPath>
</defs>
</svg>
