<svg width="18" height="18" viewBox="0 0 18 18" fill="none" xmlns="http://www.w3.org/2000/svg">
<g clip-path="url(#clip0_204_1243)">
<path d="M9 18C13.9878 18 18 13.9878 18 9C18 4.0122 13.9878 0 9 0C4.0122 0 0 4.0122 0 9C0 13.9878 4.0122 18 9 18Z" fill="#2775CA"/>
<path d="M11.475 10.4247C11.475 9.1125 10.6875 8.6625 9.11247 8.4744C7.98747 8.3241 7.76247 8.0244 7.76247 7.4997C7.76247 6.975 8.13777 6.6375 8.88747 6.6375C9.56247 6.6375 9.93777 6.8625 10.125 7.425C10.1628 7.5375 10.2753 7.6122 10.3878 7.6122H10.9881C11.1384 7.6122 11.2509 7.4997 11.2509 7.3494V7.3116C11.1006 6.4863 10.4256 5.8491 9.56337 5.7744V4.8744C9.56337 4.7241 9.45087 4.6116 9.26367 4.5747H8.70117C8.55087 4.5747 8.43837 4.6872 8.40147 4.8744V5.7366C7.27647 5.8869 6.56367 6.6366 6.56367 7.5744C6.56367 8.8119 7.31337 9.2997 8.88837 9.4869C9.93867 9.6741 10.2762 9.8991 10.2762 10.4994C10.2762 11.0997 9.75147 11.5119 9.03867 11.5119C8.06397 11.5119 7.72647 11.0997 7.61397 10.5372C7.57617 10.3869 7.46367 10.3122 7.35117 10.3122H6.71397C6.56367 10.3122 6.45117 10.4247 6.45117 10.575V10.6128C6.60147 11.5506 7.20087 12.2256 8.43837 12.4128V13.3128C8.43837 13.4631 8.55087 13.5756 8.73807 13.6125H9.30057C9.45087 13.6125 9.56337 13.5 9.60027 13.3128V12.4128C10.7244 12.2247 11.475 11.4372 11.475 10.4247Z" fill="white"/>
<path d="M7.0875 14.3622C4.1625 13.3119 2.6622 10.0494 3.7503 7.1622C4.3128 5.5872 5.5503 4.3875 7.0875 3.825C7.2378 3.7503 7.3125 3.6378 7.3125 3.4497V2.925C7.3125 2.7747 7.2378 2.6622 7.0875 2.6253C7.0497 2.6253 6.975 2.6253 6.9372 2.6631C3.375 3.7881 1.4247 7.5753 2.5497 11.1384C3.2247 13.2381 4.8375 14.8509 6.9372 15.5259C7.0875 15.6006 7.2369 15.5259 7.2747 15.3756C7.3125 15.3378 7.3125 15.3009 7.3125 15.2253V14.7006C7.3125 14.5872 7.2 14.4378 7.0875 14.3622ZM11.0619 2.6622C10.9116 2.5875 10.7622 2.6622 10.7244 2.8125C10.6866 2.8503 10.6866 2.8872 10.6866 2.9628V3.4875C10.6866 3.6378 10.7991 3.7872 10.9116 3.8628C13.8366 4.9131 15.3369 8.1756 14.2488 11.0628C13.6863 12.6378 12.4488 13.8375 10.9116 14.4C10.7613 14.4747 10.6866 14.5872 10.6866 14.7753V15.3C10.6866 15.4503 10.7613 15.5628 10.9116 15.5997C10.9494 15.5997 11.0241 15.5997 11.0619 15.5619C14.6241 14.4369 16.5744 10.6497 15.4494 7.0866C14.7744 4.95 13.1247 3.3372 11.0619 2.6622Z" fill="white"/>
</g>
<defs>
<clipPath id="clip0_204_1243">
<rect width="18" height="18" fill="white"/>
</clipPath>
</defs>
</svg>
