<svg width="18" height="18" viewBox="0 0 18 18" fill="none" xmlns="http://www.w3.org/2000/svg">
<g clip-path="url(#clip0_76_2414)">
<path d="M5.08863 1.20096C9.39182 1.19961 13.6953 1.19961 17.999 1.20096C18.0004 2.59189 18.0004 3.98264 17.999 5.37312C13.6957 5.37447 9.39227 5.37447 5.08863 5.37312C5.08728 3.98219 5.08728 2.59144 5.08863 1.20096Z" fill="#717C7D"/>
<path d="M0.00539992 6.94278C1.39372 6.93558 2.78231 6.93558 4.17108 6.94278C4.17828 8.3311 4.17828 9.71969 4.17108 11.1085C2.78231 11.1156 1.39381 11.1157 0.00539992 11.1088C-0.00179997 9.72023 -0.00179997 8.33155 0.00539992 6.94278Z" fill="#717C7D"/>
<path d="M5.09187 6.94279C8.19781 6.93622 11.3036 6.93622 14.4092 6.94279C14.4157 8.33111 14.4157 9.7197 14.4092 11.1085C11.3032 11.115 8.19745 11.115 5.09187 11.1085C5.08539 9.72006 5.08539 8.33156 5.09187 6.94279Z" fill="#717C7D"/>
<path d="M5.09572 12.6858C6.4817 12.6708 7.86741 12.6708 9.25294 12.6858C9.26734 14.0709 9.26752 15.4566 9.25357 16.8431C7.86759 16.8567 6.48188 16.8565 5.09644 16.8423C5.08204 15.4573 5.08177 14.0719 5.09572 12.6858Z" fill="#717C7D"/>
</g>
<defs>
<clipPath id="clip0_76_2414">
<rect width="18" height="15.6532" fill="white" transform="translate(0 1.19995)"/>
</clipPath>
</defs>
</svg>
