<svg width="18" height="18" viewBox="0 0 18 18" fill="none" xmlns="http://www.w3.org/2000/svg">
<g clip-path="url(#clip0_204_1215)">
<g clip-path="url(#clip1_204_1215)">
<path d="M8.42105 1.81954C9.98496 1.71428 11.5789 2.03007 12.9774 2.73683C15.0526 3.75939 16.7068 5.59398 17.4737 7.75939C17.8195 8.7218 18 9.72931 18 10.7519V14.5263C18 14.6767 18 14.8421 17.9699 14.9925C17.8797 15.3684 17.609 15.7143 17.2481 15.8797C16.9925 16 16.7068 16.015 16.4511 15.9699C15.8797 15.8647 15.4286 15.3233 15.4286 14.7368V11.218C15.4436 10.8872 15.4436 10.5263 15.2632 10.2406C14.9774 9.69924 14.2556 9.4436 13.6992 9.66916C13.218 9.83458 12.8722 10.3308 12.8571 10.8421V14.406C12.8571 14.6316 12.8722 14.8571 12.797 15.0677C12.6767 15.4887 12.3308 15.8195 11.9098 15.9398C11.3534 16.0902 10.7218 15.8496 10.4511 15.3383C10.2556 15.0376 10.2707 14.6616 10.2857 14.3158V10.7669C10.2707 10.1654 9.77444 9.62405 9.18797 9.54886C8.79699 9.48871 8.39098 9.62405 8.10526 9.89473C7.84962 10.1353 7.71429 10.4812 7.71429 10.8271V14.2707C7.71429 14.5564 7.74436 14.8571 7.6391 15.1278C7.47368 15.624 6.97744 15.985 6.45113 15.9699C5.90977 16 5.38346 15.624 5.21805 15.1278C5.12782 14.8722 5.14286 14.6165 5.14286 14.3459V10.7819C5.14286 10.1955 4.67669 9.65413 4.10526 9.54886C3.57895 9.4436 3.00752 9.69924 2.73684 10.1804C2.63158 10.3759 2.57143 10.6015 2.57143 10.8271V14.6917C2.57143 15.0677 2.40602 15.4436 2.1203 15.6842C1.68421 16.0601 0.977444 16.0902 0.526316 15.7444C0.195489 15.5188 0 15.1278 0 14.7218V10.812C0 9.33834 0.37594 7.86465 1.08271 6.55638C1.65414 5.48871 2.45113 4.54134 3.3985 3.78946C4.79699 2.61653 6.58647 1.9248 8.42105 1.81954Z" fill="#717C7D"/>
</g>
</g>
<defs>
<clipPath id="clip0_204_1215">
<rect width="18" height="18" fill="white"/>
</clipPath>
<clipPath id="clip1_204_1215">
<rect width="18" height="14.194" fill="white" transform="translate(0 1.79999)"/>
</clipPath>
</defs>
</svg>
