<svg width="18" height="18" viewBox="0 0 18 18" fill="none" xmlns="http://www.w3.org/2000/svg">
<g clip-path="url(#clip0_76_2408)">
<path d="M5.50423 7.56374L8.99982 4.06822L12.4972 7.56554L14.5312 5.53154L8.99982 0L3.47031 5.52974L5.50423 7.56374ZM0 8.99971L2.03406 6.96564L4.06798 8.99957L2.03392 11.0336L0 8.99971ZM5.50423 10.4362L8.99982 13.9317L12.4971 10.4345L14.5322 12.4674L14.5312 12.4685L8.99982 18L3.47017 12.4704L3.46729 12.4675L5.50423 10.4363M13.932 9.00086L15.9661 6.96679L18 9.00072L15.9659 11.0348L13.932 9.00086Z" fill="#F3BA2F"/>
<path d="M11.0629 8.99889H11.0638L8.99983 6.93494L7.47451 8.46026H7.47444L7.29919 8.63558L6.93776 8.99709L6.93488 8.9999L6.93776 9.00285L8.99983 11.065L11.0638 9.00105L11.0648 8.9999L11.0629 8.99889Z" fill="#F3BA2F"/>
</g>
<defs>
<clipPath id="clip0_76_2408">
<rect width="18" height="18" fill="white"/>
</clipPath>
</defs>
</svg>
