<svg width="18" height="19" viewBox="0 0 18 19" fill="none" xmlns="http://www.w3.org/2000/svg">
<g clip-path="url(#clip0_97_2597)">
<path d="M9 18.5C13.9706 18.5 18 14.4706 18 9.5C18 4.52944 13.9706 0.5 9 0.5C4.02944 0.5 0 4.52944 0 9.5C0 14.4706 4.02944 18.5 9 18.5Z" fill="#C2A633"/>
<path d="M8.89083 4.63272H6.09368V8.96657H4.94434V10.0281H6.09368V14.3609H9.35332C9.35332 14.3609 13.9359 14.745 13.9359 9.57828C13.9359 4.41153 9.55229 4.63272 8.89083 4.63272ZM9.27818 12.5628H7.92881V10.0281H9.95233V8.96657H7.92881V6.43188H9.21468C9.69516 6.43188 12.1155 6.62555 12.1187 9.61426C12.123 12.603 9.62425 12.5638 9.27712 12.5638L9.27818 12.5628Z" fill="white"/>
</g>
<defs>
<clipPath id="clip0_97_2597">
<rect width="18" height="18" fill="white" transform="translate(0 0.5)"/>
</clipPath>
</defs>
</svg>
