<svg width="18" height="18" viewBox="0 0 18 18" fill="none" xmlns="http://www.w3.org/2000/svg">
<g clip-path="url(#clip0_204_1512)">
<path d="M9 18C13.9878 18 18 13.9878 18 9C18 4.0122 13.9878 0 9 0C4.0122 0 0 4.0122 0 9C0 13.9878 4.0122 18 9 18Z" fill="#2775CA"/>
<path d="M11.475 10.4247C11.475 9.11251 10.6875 8.66251 9.11247 8.47441C7.98747 8.32411 7.76247 8.02441 7.76247 7.49971C7.76247 6.97501 8.13777 6.63751 8.88747 6.63751C9.56247 6.63751 9.93777 6.86251 10.125 7.42501C10.1628 7.53751 10.2753 7.61221 10.3878 7.61221H10.9881C11.1384 7.61221 11.2509 7.49971 11.2509 7.34941V7.31161C11.1006 6.48631 10.4256 5.84911 9.56337 5.77441V4.87441C9.56337 4.72411 9.45087 4.61161 9.26367 4.57471H8.70117C8.55087 4.57471 8.43837 4.68721 8.40147 4.87441V5.73661C7.27647 5.88691 6.56367 6.63661 6.56367 7.57441C6.56367 8.81191 7.31337 9.29971 8.88837 9.48691C9.93867 9.67411 10.2762 9.89911 10.2762 10.4994C10.2762 11.0997 9.75147 11.5119 9.03867 11.5119C8.06397 11.5119 7.72647 11.0997 7.61397 10.5372C7.57617 10.3869 7.46367 10.3122 7.35117 10.3122H6.71397C6.56367 10.3122 6.45117 10.4247 6.45117 10.575V10.6128C6.60147 11.5506 7.20087 12.2256 8.43837 12.4128V13.3128C8.43837 13.4631 8.55087 13.5756 8.73807 13.6125H9.30057C9.45087 13.6125 9.56337 13.5 9.60027 13.3128V12.4128C10.7244 12.2247 11.475 11.4372 11.475 10.4247Z" fill="white"/>
<path d="M7.0875 14.3621C4.1625 13.3118 2.6622 10.0493 3.7503 7.16214C4.3128 5.58714 5.5503 4.38744 7.0875 3.82494C7.2378 3.75024 7.3125 3.63774 7.3125 3.44964V2.92494C7.3125 2.77464 7.2378 2.66214 7.0875 2.62524C7.0497 2.62524 6.975 2.62524 6.9372 2.66304C3.375 3.78804 1.4247 7.57524 2.5497 11.1383C3.2247 13.238 4.8375 14.8508 6.9372 15.5258C7.0875 15.6005 7.2369 15.5258 7.2747 15.3755C7.3125 15.3377 7.3125 15.3008 7.3125 15.2252V14.7005C7.3125 14.5871 7.2 14.4377 7.0875 14.3621ZM11.0619 2.66214C10.9116 2.58744 10.7622 2.66214 10.7244 2.81244C10.6866 2.85024 10.6866 2.88714 10.6866 2.96274V3.48744C10.6866 3.63774 10.7991 3.78714 10.9116 3.86274C13.8366 4.91304 15.3369 8.17554 14.2488 11.0627C13.6863 12.6377 12.4488 13.8374 10.9116 14.3999C10.7613 14.4746 10.6866 14.5871 10.6866 14.7752V15.2999C10.6866 15.4502 10.7613 15.5627 10.9116 15.5996C10.9494 15.5996 11.0241 15.5996 11.0619 15.5618C14.6241 14.4368 16.5744 10.6496 15.4494 7.08654C14.7744 4.94994 13.1247 3.33714 11.0619 2.66214Z" fill="white"/>
</g>
<defs>
<clipPath id="clip0_204_1512">
<rect width="18" height="18" fill="white"/>
</clipPath>
</defs>
</svg>
