<svg width="18" height="19" viewBox="0 0 18 19" fill="none" xmlns="http://www.w3.org/2000/svg">
<g clip-path="url(#clip0_97_2170)">
<path d="M9 0.5C13.9703 0.5 18 4.52966 18 9.5C18 14.4703 13.9702 18.5 9 18.5C4.02984 18.5 0 14.4714 0 9.5C0 4.52858 4.02912 0.5 9 0.5Z" fill="#53AE94"/>
<path d="M10.111 8.30066V6.96182H13.1726V4.92188H4.83571V6.96182H7.89769V8.29958C5.40919 8.41388 3.53809 8.90672 3.53809 9.49712C3.53809 10.0875 5.41009 10.5804 7.89769 10.6954V14.9839H10.1117V10.695C12.5957 10.5804 14.463 10.0879 14.463 9.49802C14.463 8.90816 12.5957 8.41568 10.1117 8.30102M10.1117 10.3318V10.3307C10.0492 10.3347 9.72829 10.3539 9.01369 10.3539C8.44237 10.3539 8.04043 10.3377 7.89877 10.3303V10.3321C5.70025 10.2348 4.05919 9.85189 4.05919 9.3938C4.05919 8.9357 5.70043 8.55338 7.89877 8.45582V9.95072C8.04277 9.96062 8.45461 9.98492 9.02305 9.98492C9.70579 9.98492 10.049 9.95648 10.112 9.95072V8.45582C12.3062 8.55356 13.9435 8.93678 13.9435 9.39326C13.9435 9.84974 12.3055 10.2331 10.112 10.3309" fill="white"/>
</g>
<defs>
<clipPath id="clip0_97_2170">
<rect width="18" height="18" fill="white" transform="translate(0 0.5)"/>
</clipPath>
</defs>
</svg>
