<svg width="193" height="36" viewBox="0 0 193 36" fill="none" xmlns="http://www.w3.org/2000/svg">
<path d="M15.5487 17.9766L7.79773 13.4941L15.5487 9.0116L23.3464 13.4941L15.5487 17.9766Z" fill="url(#paint0_linear_204_1867)"/>
<path d="M7.79773 13.4941V31.4708L15.5487 36V17.9766L7.79773 13.4941Z" fill="url(#paint1_linear_204_1867)"/>
<path d="M15.5488 17.9766L23.3465 13.4941V22.5058L15.5488 26.9883V17.9766Z" fill="white"/>
<path d="M23.3463 4.48249L15.5486 0L7.79766 4.48249L0 9.01166V17.9766V26.9883L7.79766 31.4708V13.4942L15.5486 9.01166L23.3463 13.4942V22.5058L15.5486 26.9883V36L23.3463 31.4708L31.0973 26.9883V17.9766V9.01166L23.3463 4.48249Z" fill="#A8045E"/>
<path d="M42.282 10.448C43.9141 8.73009 45.8897 7.95703 48.2948 7.95703C50.6998 7.95703 52.6755 8.81599 54.3075 10.448C55.9395 12.1659 56.7126 14.3133 56.7126 16.8902C56.7126 19.4671 55.9395 21.7004 54.3075 23.3324C52.6755 25.0503 50.6998 25.8234 48.2948 25.8234C45.8897 25.8234 43.9141 24.9644 42.282 23.3324C40.65 21.6145 39.877 19.4671 39.877 16.8902C39.877 14.3133 40.65 12.08 42.282 10.448ZM51.7306 13.1967C50.7857 12.2518 49.6691 11.7365 48.2948 11.7365C46.9204 11.7365 45.7179 12.2518 44.8589 13.1967C43.9141 14.1415 43.4846 15.43 43.4846 16.8902C43.4846 18.4363 43.9141 19.6389 44.8589 20.5837C45.8038 21.5286 46.9204 22.044 48.2948 22.044C49.6691 22.044 50.8716 21.5286 51.7306 20.5837C52.6755 19.6389 53.1049 18.3504 53.1049 16.8902C53.1049 15.3441 52.5896 14.1415 51.7306 13.1967Z" fill="#A8045E"/>
<path d="M65.2162 11.5645C67.106 11.5645 68.5662 12.2516 69.7687 13.5401C70.9713 14.8285 71.4867 16.5464 71.4867 18.6938C71.4867 20.8412 70.8854 22.5592 69.7687 23.8476C68.6521 25.136 67.106 25.8232 65.2162 25.8232C63.6701 25.8232 62.4676 25.3078 61.4368 24.363V30.4616H58.001V11.908H61.4368V13.1106C62.3817 12.0798 63.6701 11.5645 65.2162 11.5645ZM67.2778 15.8593C66.6765 15.0862 65.8175 14.7426 64.8727 14.7426C63.9278 14.7426 63.0688 15.0862 62.4676 15.8593C61.8663 16.6323 61.5227 17.5772 61.5227 18.6938C61.5227 19.8105 61.8663 20.7553 62.4676 21.5284C63.0688 22.3015 63.9278 22.645 64.8727 22.645C65.8175 22.645 66.6765 22.3015 67.2778 21.5284C67.879 20.7553 68.2226 19.8105 68.2226 18.6938C68.2226 17.5772 67.879 16.6323 67.2778 15.8593Z" fill="#A8045E"/>
<path d="M79.0457 11.5646C80.7636 11.5646 82.138 12.1659 83.3405 13.3684C84.5431 14.5709 85.0584 16.2889 85.0584 18.5222C85.0584 19.0375 85.0584 19.3811 84.9725 19.6388H75.6958C75.8676 20.5837 76.2112 21.2708 76.8124 21.7862C77.4137 22.3016 78.1009 22.5593 78.9598 22.5593C80.1624 22.5593 81.1072 22.0439 81.7944 20.9272L84.7149 22.4734C84.1136 23.5041 83.3405 24.2772 82.3098 24.8785C81.279 25.4797 80.1624 25.7374 78.9598 25.7374C77.0701 25.7374 75.4381 25.0503 74.2355 23.7618C72.9471 22.3875 72.3458 20.6696 72.3458 18.6081C72.3458 16.5466 73.033 14.8286 74.3214 13.4543C75.524 12.2518 77.156 11.5646 79.0457 11.5646ZM78.9598 14.7427C78.2727 14.7427 77.6714 14.9145 77.156 15.344C76.6406 15.6876 76.2112 16.2889 75.9535 16.8901H81.6226C81.6226 16.3748 81.4508 15.8594 81.0213 15.4299C80.5918 15.0004 79.9047 14.7427 78.9598 14.7427Z" fill="#A8045E"/>
<path d="M93.9913 11.5646C95.1939 11.5646 96.2246 11.9941 97.1695 12.9389C98.1144 13.8838 98.5438 15.0863 98.5438 16.5466V16.6324V25.5656H95.108V18.0927C95.108 15.9453 94.3349 14.8286 92.8747 14.8286C92.1016 14.8286 91.5004 15.0004 90.985 15.344C90.4696 15.6876 90.0401 16.1171 89.8683 16.7183V25.4797H86.4325V11.8223H89.8683V13.712C90.3837 13.0248 90.985 12.5094 91.758 12.1659C92.5311 11.7364 93.2183 11.5646 93.9913 11.5646Z" fill="#A8045E"/>
<path d="M107.306 8.2146H110.913H112.717C114.95 8.2146 116.668 8.72999 117.785 9.67484C118.902 10.7056 119.417 11.994 119.417 13.7119C119.417 15.344 118.902 16.7183 117.785 17.7491C116.668 18.7798 114.95 19.2952 112.717 19.2952H110.913V25.5656H107.306V8.2146ZM110.913 11.5645V15.8593H112.717C113.92 15.8593 114.779 15.6875 115.38 15.344C115.981 15.0004 116.239 14.485 116.239 13.626C116.239 12.853 115.981 12.2517 115.38 11.994C114.779 11.6504 113.92 11.5645 112.717 11.5645H110.913Z" fill="#A8045E"/>
<path d="M121.735 13.5401C123.024 12.1657 124.57 11.5645 126.46 11.5645C128.349 11.5645 129.981 12.2516 131.184 13.5401C132.472 14.9144 133.074 16.5464 133.074 18.6938C133.074 20.7553 132.472 22.4733 131.184 23.8476C129.896 25.2219 128.349 25.8232 126.46 25.8232C124.57 25.8232 122.938 25.136 121.735 23.8476C120.447 22.4733 119.846 20.7553 119.846 18.6938C119.846 16.6323 120.533 14.9144 121.735 13.5401ZM128.951 15.8593C128.349 15.0862 127.49 14.7426 126.546 14.7426C125.601 14.7426 124.742 15.0862 124.141 15.8593C123.453 16.6323 123.196 17.5772 123.196 18.6938C123.196 19.8105 123.539 20.7553 124.141 21.5284C124.828 22.3015 125.601 22.645 126.546 22.645C127.49 22.645 128.349 22.3015 128.951 21.5284C129.552 20.7553 129.896 19.8105 129.896 18.6938C129.896 17.5772 129.552 16.6323 128.951 15.8593Z" fill="#A8045E"/>
<path d="M144.24 21.5284C144.24 22.9886 143.811 24.0193 142.866 24.7924C141.921 25.4796 140.632 25.9091 139 25.9091C138.056 25.9091 137.197 25.7373 136.252 25.4796C135.393 25.2219 134.706 24.9642 134.362 24.7065L133.761 24.277L135.135 21.5284C135.221 21.6143 135.479 21.7002 135.65 21.8719C135.908 22.0437 136.338 22.2155 137.025 22.3873C137.712 22.645 138.313 22.7309 139 22.7309C139.773 22.7309 140.289 22.645 140.547 22.3873C140.804 22.2155 140.976 21.8719 140.976 21.5284C140.976 21.1848 140.718 20.8412 140.289 20.5835C139.773 20.3258 139.258 20.0681 138.571 19.8963C137.884 19.7246 137.197 19.4669 136.509 19.1233C135.822 18.8656 135.221 18.4361 134.791 17.8348C134.276 17.3195 134.104 16.6323 134.104 15.7733C134.104 14.399 134.62 13.3682 135.565 12.5952C136.509 11.8221 137.712 11.4785 139.086 11.4785C139.945 11.4785 140.718 11.6503 141.491 11.908C142.264 12.1657 142.866 12.4234 143.209 12.767L143.725 13.1964L142.35 15.8592C142.264 15.7733 142.093 15.6874 141.921 15.5156C141.749 15.4297 141.32 15.2579 140.718 15.0003C140.117 14.8285 139.516 14.6567 139 14.6567C137.884 14.6567 137.282 15.0003 137.282 15.6874C137.282 15.9451 137.54 16.2028 137.97 16.4605C138.485 16.7182 139 16.89 139.688 17.1477C140.375 17.3195 141.062 17.5771 141.749 17.9207C142.436 18.2643 142.952 18.6938 143.467 19.2951C144.068 19.8963 144.24 20.5835 144.24 21.5284Z" fill="#A8045E"/>
<path d="M145.959 7.35523C146.302 7.01164 146.732 6.83984 147.247 6.83984C147.763 6.83984 148.192 7.01164 148.536 7.35523C148.879 7.69881 149.051 8.12829 149.051 8.72957C149.051 9.33084 148.879 9.76032 148.536 10.1039C148.192 10.4475 147.763 10.6193 147.247 10.6193C146.732 10.6193 146.302 10.4475 145.959 10.1039C145.615 9.76032 145.443 9.33084 145.443 8.72957C145.443 8.12829 145.615 7.69881 145.959 7.35523ZM145.615 11.8218H149.051V25.4793H145.615V11.8218Z" fill="#A8045E"/>
<path d="M151.886 8.12793H155.15V11.8215H158.5V15.0855H155.15V18.5214V18.6073V19.8957C155.15 20.2393 155.15 20.5829 155.236 20.8406C155.236 21.0982 155.322 21.3559 155.407 21.6995C155.493 21.9572 155.665 22.2149 155.837 22.3008C156.009 22.4726 156.266 22.5585 156.61 22.5585C156.954 22.5585 157.297 22.4726 157.641 22.3867C157.984 22.3008 158.242 22.129 158.328 22.0431L158.586 21.8713L159.702 24.4482C159.616 24.5341 159.53 24.7059 159.359 24.7918C159.187 24.9635 158.843 25.1353 158.242 25.393C157.641 25.6507 157.039 25.7366 156.352 25.7366C155.579 25.7366 154.892 25.5648 154.291 25.3071C153.69 25.0494 153.26 24.7059 153.002 24.2764C152.659 23.8469 152.487 23.3315 152.315 22.6444C152.143 21.9572 152.057 21.3559 151.972 20.7547C151.972 20.1534 151.886 19.4662 151.886 18.6073V15.0855H149.738V11.8215H151.886V8.12793Z" fill="#A8045E"/>
<path d="M160.904 7.35523C161.248 7.01164 161.677 6.83984 162.192 6.83984C162.708 6.83984 163.137 7.01164 163.481 7.35523C163.825 7.69881 163.996 8.12829 163.996 8.72957C163.996 9.33084 163.825 9.76032 163.481 10.1039C163.137 10.4475 162.708 10.6193 162.192 10.6193C161.677 10.6193 161.248 10.4475 160.904 10.1039C160.56 9.76032 160.389 9.33084 160.389 8.72957C160.389 8.12829 160.56 7.69881 160.904 7.35523ZM160.56 11.8218H163.996V25.4793H160.56V11.8218Z" fill="#A8045E"/>
<path d="M167.175 13.5402C168.463 12.1659 170.009 11.5646 171.899 11.5646C173.789 11.5646 175.421 12.2518 176.623 13.5402C177.912 14.9145 178.513 16.5466 178.513 18.694C178.513 20.7555 177.912 22.4734 176.623 23.8477C175.335 25.2221 173.789 25.8233 171.899 25.8233C170.009 25.8233 168.377 25.1362 167.175 23.8477C165.886 22.4734 165.285 20.7555 165.285 18.694C165.285 16.6325 165.886 14.9145 167.175 13.5402ZM174.39 15.8594C173.789 15.0863 172.93 14.7427 171.985 14.7427C171.04 14.7427 170.181 15.0863 169.58 15.8594C168.893 16.6324 168.635 17.5773 168.635 18.694C168.635 19.8106 168.979 20.7555 169.58 21.5285C170.267 22.3016 171.04 22.6452 171.985 22.6452C172.93 22.6452 173.789 22.3016 174.39 21.5285C174.991 20.7555 175.335 19.8106 175.335 18.694C175.335 17.5773 174.991 16.6324 174.39 15.8594Z" fill="#A8045E"/>
<path d="M187.532 11.5646C188.735 11.5646 189.766 11.9941 190.711 12.9389C191.655 13.8838 192.085 15.0863 192.085 16.5466V16.6324V25.5656H188.649V18.0927C188.649 15.9453 187.876 14.8286 186.416 14.8286C185.643 14.8286 185.042 15.0004 184.526 15.344C184.011 15.6876 183.581 16.1171 183.409 16.7183V25.4797H179.974V11.8223H183.409V13.712C183.925 13.0248 184.526 12.5094 185.299 12.1659C185.986 11.7364 186.759 11.5646 187.532 11.5646Z" fill="#A8045E"/>
<defs>
<linearGradient id="paint0_linear_204_1867" x1="7.80125" y1="13.496" x2="23.3407" y2="13.496" gradientUnits="userSpaceOnUse">
<stop stop-color="white"/>
<stop offset="1" stop-color="#F9D2EF"/>
</linearGradient>
<linearGradient id="paint1_linear_204_1867" x1="11.6778" y1="31.7956" x2="11.6778" y2="16.5107" gradientUnits="userSpaceOnUse">
<stop stop-color="white"/>
<stop offset="1" stop-color="#E09DC8"/>
</linearGradient>
</defs>
</svg>
