<svg width="18" height="18" viewBox="0 0 18 18" fill="none" xmlns="http://www.w3.org/2000/svg">
<g clip-path="url(#clip0_204_1254)">
<path d="M9 0C13.9703 0 18 4.02966 18 9C18 13.9703 13.9702 18 9 18C4.02984 18 0 13.9714 0 9C0 4.02858 4.02912 0 9 0Z" fill="#53AE94"/>
<path d="M10.1107 7.80084V6.462H13.1723V4.42206H4.83546V6.462H7.89744V7.79976C5.40894 7.91406 3.53784 8.4069 3.53784 8.9973C3.53784 9.5877 5.40984 10.0805 7.89744 10.1956V14.4841H10.1114V10.1952C12.5954 10.0805 14.4628 9.58806 14.4628 8.9982C14.4628 8.40834 12.5954 7.91586 10.1114 7.8012M10.1114 9.83196V9.83088C10.049 9.83484 9.72804 9.8541 9.01344 9.8541C8.44212 9.8541 8.04018 9.8379 7.89852 9.83052V9.83232C5.7 9.73494 4.05894 9.35208 4.05894 8.89398C4.05894 8.43588 5.70018 8.05356 7.89852 7.956V9.4509C8.04252 9.4608 8.45436 9.4851 9.0228 9.4851C9.70554 9.4851 10.0488 9.45666 10.1118 9.4509V7.956C12.306 8.05374 13.9433 8.43696 13.9433 8.89344C13.9433 9.34992 12.3053 9.73332 10.1118 9.83106" fill="white"/>
</g>
<defs>
<clipPath id="clip0_204_1254">
<rect width="18" height="18" fill="white"/>
</clipPath>
</defs>
</svg>
