<svg width="18" height="19" viewBox="0 0 18 19" fill="none" xmlns="http://www.w3.org/2000/svg">
<g clip-path="url(#clip0_97_2581)">
<path d="M9 0.5C13.9703 0.5 18 4.52966 18 9.5C18 14.4703 13.9702 18.5 9 18.5C4.02984 18.5 0 14.4714 0 9.5C0 4.52858 4.02912 0.5 9 0.5Z" fill="#53AE94"/>
<path d="M10.111 8.3009V6.96206H13.1726V4.92212H4.83571V6.96206H7.89769V8.29982C5.40919 8.41412 3.53809 8.90696 3.53809 9.49736C3.53809 10.0878 5.41009 10.5806 7.89769 10.6956V14.9841H10.1117V10.6953C12.5957 10.5806 14.463 10.0881 14.463 9.49826C14.463 8.9084 12.5957 8.41592 10.1117 8.30126M10.1117 10.332V10.3309C10.0492 10.3349 9.72829 10.3542 9.01369 10.3542C8.44237 10.3542 8.04043 10.338 7.89877 10.3306V10.3324C5.70025 10.235 4.05919 9.85214 4.05919 9.39404C4.05919 8.93594 5.70043 8.55362 7.89877 8.45606V9.95096C8.04277 9.96086 8.45461 9.98516 9.02305 9.98516C9.70579 9.98516 10.049 9.95672 10.112 9.95096V8.45606C12.3062 8.5538 13.9435 8.93702 13.9435 9.3935C13.9435 9.84998 12.3055 10.2334 10.112 10.3311" fill="white"/>
</g>
<defs>
<clipPath id="clip0_97_2581">
<rect width="18" height="18" fill="white" transform="translate(0 0.5)"/>
</clipPath>
</defs>
</svg>
