<svg width="18" height="18" viewBox="0 0 18 18" fill="none" xmlns="http://www.w3.org/2000/svg">
<g clip-path="url(#clip0_204_1233)">
<path d="M17.7328 11.1769C16.5316 15.9975 11.6456 18.9338 6.82419 17.73C2.00282 16.5291 -0.933893 11.6438 0.270045 6.82313C1.47117 2.0025 6.35443 -0.933747 11.1758 0.270003C15.9972 1.47094 18.9339 6.35625 17.73 11.1769H17.7328Z" fill="#F7931A"/>
<path d="M12.9705 7.71749C13.1505 6.51937 12.2391 5.87531 10.9902 5.44781L11.3952 3.82499L10.4079 3.58031L10.0141 5.16093C9.75528 5.09624 9.48805 5.03437 9.22363 4.97531L9.62026 3.38624L8.63291 3.14156L8.22785 4.76437C8.01407 4.71656 7.8031 4.66593 7.59775 4.61531V4.60968L6.23629 4.26937L5.97469 5.32406C5.97469 5.32406 6.70886 5.49281 6.69199 5.50124C7.09142 5.59968 7.16456 5.86687 7.15331 6.07499L6.69199 7.92281C6.72012 7.93124 6.75668 7.93968 6.79607 7.95656C6.76231 7.94812 6.72855 7.93968 6.69199 7.93124L6.04501 10.5216C5.99719 10.6425 5.87061 10.8253 5.59213 10.755C5.60057 10.7691 4.87483 10.575 4.87483 10.575L4.38538 11.7056L5.67089 12.0262C5.90999 12.0853 6.14346 12.15 6.37412 12.2091L5.96625 13.8487L6.95359 14.0934L7.35865 12.4706C7.6287 12.5437 7.8903 12.6112 8.14628 12.6759L7.74403 14.2903L8.73137 14.535L9.13924 12.8981C10.8242 13.2159 12.09 13.0894 12.6217 11.565C13.052 10.3387 12.5992 9.63281 11.7131 9.16874C12.3572 9.01968 12.8439 8.59499 12.9733 7.71749H12.9705ZM10.7145 10.8816C10.4107 12.1078 8.34318 11.4441 7.6737 11.2781L8.2166 9.10406C8.88608 9.26999 11.0324 9.60187 10.7145 10.8816ZM11.0211 7.70062C10.7426 8.81718 9.02391 8.24906 8.46695 8.11124L8.95922 6.13968C9.51618 6.27749 11.3136 6.53906 11.0211 7.70062Z" fill="white"/>
</g>
<defs>
<clipPath id="clip0_204_1233">
<rect width="18" height="18" fill="white"/>
</clipPath>
</defs>
</svg>
