<svg width="18" height="19" viewBox="0 0 18 19" fill="none" xmlns="http://www.w3.org/2000/svg">
<g clip-path="url(#clip0_97_2565)">
<path d="M17.7327 11.6768C16.5315 16.4974 11.6454 19.4336 6.82407 18.2299C2.00269 17.0289 -0.934015 12.1436 0.269923 7.32301C1.47105 2.50238 6.35431 -0.433869 11.1757 0.769881C15.9971 1.97082 18.9338 6.85613 17.7298 11.6768H17.7327Z" fill="#F7931A"/>
<path d="M12.9703 8.21754C13.1504 7.01941 12.239 6.37535 10.99 5.94785L11.3951 4.32504L10.4078 4.08035L10.0139 5.66098C9.75516 5.59629 9.48793 5.53441 9.22351 5.47535L9.62013 3.88629L8.63279 3.6416L8.22773 5.26441C8.01395 5.2166 7.80298 5.16598 7.59763 5.11535V5.10973L6.23617 4.76941L5.97456 5.8241C5.97456 5.8241 6.70874 5.99285 6.69186 6.00129C7.0913 6.09973 7.16444 6.36691 7.15319 6.57504L6.69186 8.42285C6.71999 8.43129 6.75656 8.43973 6.79594 8.4566C6.76219 8.44816 6.72843 8.43973 6.69186 8.43129L6.04489 11.0216C5.99707 11.1425 5.87049 11.3254 5.592 11.255C5.60044 11.2691 4.87471 11.075 4.87471 11.075L4.38525 12.2057L5.67077 12.5263C5.90987 12.5854 6.14334 12.65 6.374 12.7091L5.96613 14.3488L6.95347 14.5935L7.35853 12.9707C7.62857 13.0438 7.89018 13.1113 8.14615 13.176L7.7439 14.7904L8.73125 15.035L9.13912 13.3982C10.8241 13.716 12.0899 13.5894 12.6215 12.065C13.0519 10.8388 12.599 10.1329 11.713 9.66879C12.3571 9.51973 12.8438 9.09504 12.9732 8.21754H12.9703ZM10.7144 11.3816C10.4106 12.6079 8.34306 11.9441 7.67358 11.7782L8.21648 9.6041C8.88596 9.77004 11.0322 10.1019 10.7144 11.3816ZM11.021 8.20066C10.7425 9.31723 9.02379 8.7491 8.46683 8.61129L8.95909 6.63973C9.51606 6.77754 11.3135 7.0391 11.021 8.20066Z" fill="white"/>
</g>
<defs>
<clipPath id="clip0_97_2565">
<rect width="18" height="18" fill="white" transform="translate(0 0.5)"/>
</clipPath>
</defs>
</svg>
