<svg width="18" height="18" viewBox="0 0 18 18" fill="none" xmlns="http://www.w3.org/2000/svg">
<g clip-path="url(#clip0_204_1502)">
<path d="M17.7328 11.1769C16.5316 15.9975 11.6456 18.9338 6.82419 17.73C2.00282 16.5291 -0.933893 11.6438 0.270045 6.82313C1.47117 2.0025 6.35443 -0.933747 11.1758 0.270003C15.9972 1.47094 18.9339 6.35625 17.73 11.1769H17.7328Z" fill="#F7931A"/>
<path d="M12.9705 7.71754C13.1505 6.51941 12.2391 5.87535 10.9902 5.44785L11.3952 3.82504L10.4079 3.58035L10.0141 5.16098C9.75528 5.09629 9.48805 5.03441 9.22363 4.97535L9.62026 3.38629L8.63291 3.1416L8.22785 4.76441C8.01407 4.7166 7.8031 4.66598 7.59775 4.61535V4.60973L6.23629 4.26941L5.97469 5.3241C5.97469 5.3241 6.70886 5.49285 6.69199 5.50129C7.09142 5.59973 7.16456 5.86691 7.15331 6.07504L6.69199 7.92285C6.72012 7.93129 6.75668 7.93973 6.79607 7.9566C6.76231 7.94816 6.72855 7.93973 6.69199 7.93129L6.04501 10.5216C5.99719 10.6425 5.87061 10.8254 5.59213 10.755C5.60057 10.7691 4.87483 10.575 4.87483 10.575L4.38538 11.7057L5.67089 12.0263C5.90999 12.0854 6.14346 12.15 6.37412 12.2091L5.96625 13.8488L6.95359 14.0935L7.35865 12.4707C7.6287 12.5438 7.8903 12.6113 8.14628 12.676L7.74403 14.2904L8.73137 14.535L9.13924 12.8982C10.8242 13.216 12.09 13.0894 12.6217 11.565C13.052 10.3388 12.5992 9.63285 11.7131 9.16879C12.3572 9.01973 12.8439 8.59504 12.9733 7.71754H12.9705ZM10.7145 10.8816C10.4107 12.1079 8.34318 11.4441 7.6737 11.2782L8.2166 9.1041C8.88608 9.27004 11.0324 9.60191 10.7145 10.8816ZM11.0211 7.70066C10.7426 8.81723 9.02391 8.2491 8.46695 8.11129L8.95922 6.13973C9.51618 6.27754 11.3136 6.5391 11.0211 7.70066Z" fill="white"/>
</g>
<defs>
<clipPath id="clip0_204_1502">
<rect width="18" height="18" fill="white"/>
</clipPath>
</defs>
</svg>
