<svg width="18" height="18" viewBox="0 0 18 18" fill="none" xmlns="http://www.w3.org/2000/svg">
<g clip-path="url(#clip0_204_1523)">
<path d="M9 0C13.9703 0 18 4.02966 18 9C18 13.9703 13.9702 18 9 18C4.02984 18 0 13.9714 0 9C0 4.02858 4.02912 0 9 0Z" fill="#53AE94"/>
<path d="M10.1107 7.8009V6.46206H13.1723V4.42212H4.83546V6.46206H7.89744V7.79982C5.40894 7.91412 3.53784 8.40696 3.53784 8.99736C3.53784 9.58776 5.40984 10.0806 7.89744 10.1956V14.4841H10.1114V10.1953C12.5954 10.0806 14.4628 9.58812 14.4628 8.99826C14.4628 8.4084 12.5954 7.91592 10.1114 7.80126M10.1114 9.83202V9.83094C10.049 9.8349 9.72804 9.85416 9.01344 9.85416C8.44212 9.85416 8.04018 9.83796 7.89852 9.83058V9.83238C5.7 9.735 4.05894 9.35214 4.05894 8.89404C4.05894 8.43594 5.70018 8.05362 7.89852 7.95606V9.45096C8.04252 9.46086 8.45436 9.48516 9.0228 9.48516C9.70554 9.48516 10.0488 9.45672 10.1118 9.45096V7.95606C12.306 8.0538 13.9433 8.43702 13.9433 8.8935C13.9433 9.34998 12.3053 9.73338 10.1118 9.83112" fill="white"/>
</g>
<defs>
<clipPath id="clip0_204_1523">
<rect width="18" height="18" fill="white"/>
</clipPath>
</defs>
</svg>
