<svg width="18" height="19" viewBox="0 0 18 19" fill="none" xmlns="http://www.w3.org/2000/svg">
<g clip-path="url(#clip0_97_2573)">
<path d="M9 18.5C13.9878 18.5 18 14.4878 18 9.5C18 4.5122 13.9878 0.5 9 0.5C4.0122 0.5 0 4.5122 0 9.5C0 14.4878 4.0122 18.5 9 18.5Z" fill="#2775CA"/>
<path d="M11.475 10.9247C11.475 9.61251 10.6875 9.16251 9.11247 8.97441C7.98747 8.82411 7.76247 8.52441 7.76247 7.99971C7.76247 7.47501 8.13777 7.13751 8.88747 7.13751C9.56247 7.13751 9.93777 7.36251 10.125 7.92501C10.1628 8.03751 10.2753 8.11221 10.3878 8.11221H10.9881C11.1384 8.11221 11.2509 7.99971 11.2509 7.84941V7.81161C11.1006 6.98631 10.4256 6.34911 9.56337 6.27441V5.37441C9.56337 5.22411 9.45087 5.11161 9.26367 5.07471H8.70117C8.55087 5.07471 8.43837 5.18721 8.40147 5.37441V6.23661C7.27647 6.38691 6.56367 7.13661 6.56367 8.07441C6.56367 9.31191 7.31337 9.79971 8.88837 9.98691C9.93867 10.1741 10.2762 10.3991 10.2762 10.9994C10.2762 11.5997 9.75147 12.0119 9.03867 12.0119C8.06397 12.0119 7.72647 11.5997 7.61397 11.0372C7.57617 10.8869 7.46367 10.8122 7.35117 10.8122H6.71397C6.56367 10.8122 6.45117 10.9247 6.45117 11.075V11.1128C6.60147 12.0506 7.20087 12.7256 8.43837 12.9128V13.8128C8.43837 13.9631 8.55087 14.0756 8.73807 14.1125H9.30057C9.45087 14.1125 9.56337 14 9.60027 13.8128V12.9128C10.7244 12.7247 11.475 11.9372 11.475 10.9247Z" fill="white"/>
<path d="M7.0875 14.8621C4.1625 13.8118 2.6622 10.5493 3.7503 7.66214C4.3128 6.08714 5.5503 4.88744 7.0875 4.32494C7.2378 4.25024 7.3125 4.13774 7.3125 3.94964V3.42494C7.3125 3.27464 7.2378 3.16214 7.0875 3.12524C7.0497 3.12524 6.975 3.12524 6.9372 3.16304C3.375 4.28804 1.4247 8.07524 2.5497 11.6383C3.2247 13.738 4.8375 15.3508 6.9372 16.0258C7.0875 16.1005 7.2369 16.0258 7.2747 15.8755C7.3125 15.8377 7.3125 15.8008 7.3125 15.7252V15.2005C7.3125 15.0871 7.2 14.9377 7.0875 14.8621ZM11.0619 3.16214C10.9116 3.08744 10.7622 3.16214 10.7244 3.31244C10.6866 3.35024 10.6866 3.38714 10.6866 3.46274V3.98744C10.6866 4.13774 10.7991 4.28714 10.9116 4.36274C13.8366 5.41304 15.3369 8.67554 14.2488 11.5627C13.6863 13.1377 12.4488 14.3374 10.9116 14.8999C10.7613 14.9746 10.6866 15.0871 10.6866 15.2752V15.7999C10.6866 15.9502 10.7613 16.0627 10.9116 16.0996C10.9494 16.0996 11.0241 16.0996 11.0619 16.0618C14.6241 14.9368 16.5744 11.1496 15.4494 7.58654C14.7744 5.44994 13.1247 3.83714 11.0619 3.16214Z" fill="white"/>
</g>
<defs>
<clipPath id="clip0_97_2573">
<rect width="18" height="18" fill="white" transform="translate(0 0.5)"/>
</clipPath>
</defs>
</svg>
