<svg width="18" height="18" viewBox="0 0 18 18" fill="none" xmlns="http://www.w3.org/2000/svg">
<g clip-path="url(#clip0_204_1533)">
<path d="M9 18C13.9706 18 18 13.9706 18 9C18 4.02944 13.9706 0 9 0C4.02944 0 0 4.02944 0 9C0 13.9706 4.02944 18 9 18Z" fill="#345D9D"/>
<path d="M13.2495 12.443H8.23741L9.17468 9.28318L10.613 8.86916L10.9178 7.82329L9.47949 8.25891L11.0048 3.07215V3.00674C11.0048 2.85434 10.8956 2.74512 10.7432 2.74512H8.80384C8.65144 2.74512 8.52062 2.85434 8.47681 3.00674L6.68989 9.13015L5.25159 9.56576L4.92456 10.59L6.36286 10.1544L5.07696 14.5347H12.7257C12.8781 14.5347 13.0089 14.4255 13.0527 14.2953L13.4883 12.7916V12.7262C13.5099 12.5516 13.4013 12.443 13.2489 12.443H13.2495Z" fill="white"/>
</g>
<defs>
<clipPath id="clip0_204_1533">
<rect width="18" height="18" fill="white"/>
</clipPath>
</defs>
</svg>
