<svg width="18" height="19" viewBox="0 0 18 19" fill="none" xmlns="http://www.w3.org/2000/svg">
<g clip-path="url(#clip0_97_2162)">
<path d="M9 18.5C13.9878 18.5 18 14.4878 18 9.5C18 4.5122 13.9878 0.5 9 0.5C4.0122 0.5 0 4.5122 0 9.5C0 14.4878 4.0122 18.5 9 18.5Z" fill="#2775CA"/>
<path d="M11.475 10.9247C11.475 9.61251 10.6875 9.16251 9.11247 8.97441C7.98747 8.82411 7.76247 8.52441 7.76247 7.99971C7.76247 7.47501 8.13777 7.13751 8.88747 7.13751C9.56247 7.13751 9.93777 7.36251 10.125 7.92501C10.1628 8.03751 10.2753 8.11221 10.3878 8.11221H10.9881C11.1384 8.11221 11.2509 7.99971 11.2509 7.84941V7.81161C11.1006 6.98631 10.4256 6.34911 9.56337 6.27441V5.37441C9.56337 5.22411 9.45087 5.11161 9.26367 5.07471H8.70117C8.55087 5.07471 8.43837 5.18721 8.40147 5.37441V6.23661C7.27647 6.38691 6.56367 7.13661 6.56367 8.07441C6.56367 9.31191 7.31337 9.79971 8.88837 9.98691C9.93867 10.1741 10.2762 10.3991 10.2762 10.9994C10.2762 11.5997 9.75147 12.0119 9.03867 12.0119C8.06397 12.0119 7.72647 11.5997 7.61397 11.0372C7.57617 10.8869 7.46367 10.8122 7.35117 10.8122H6.71397C6.56367 10.8122 6.45117 10.9247 6.45117 11.075V11.1128C6.60147 12.0506 7.20087 12.7256 8.43837 12.9128V13.8128C8.43837 13.9631 8.55087 14.0756 8.73807 14.1125H9.30057C9.45087 14.1125 9.56337 14 9.60027 13.8128V12.9128C10.7244 12.7247 11.475 11.9372 11.475 10.9247Z" fill="white"/>
<path d="M7.0875 14.8624C4.1625 13.8121 2.6622 10.5496 3.7503 7.66239C4.3128 6.08739 5.5503 4.88769 7.0875 4.32519C7.2378 4.25049 7.3125 4.13799 7.3125 3.94989V3.42519C7.3125 3.27489 7.2378 3.16239 7.0875 3.12549C7.0497 3.12549 6.975 3.12549 6.9372 3.16329C3.375 4.28829 1.4247 8.07549 2.5497 11.6386C3.2247 13.7383 4.8375 15.3511 6.9372 16.0261C7.0875 16.1008 7.2369 16.0261 7.2747 15.8758C7.3125 15.838 7.3125 15.8011 7.3125 15.7255V15.2008C7.3125 15.0874 7.2 14.938 7.0875 14.8624ZM11.0619 3.16239C10.9116 3.08769 10.7622 3.16239 10.7244 3.31269C10.6866 3.35049 10.6866 3.38739 10.6866 3.46299V3.98769C10.6866 4.13799 10.7991 4.28739 10.9116 4.36299C13.8366 5.41329 15.3369 8.67579 14.2488 11.563C13.6863 13.138 12.4488 14.3377 10.9116 14.9002C10.7613 14.9749 10.6866 15.0874 10.6866 15.2755V15.8002C10.6866 15.9505 10.7613 16.063 10.9116 16.0999C10.9494 16.0999 11.0241 16.0999 11.0619 16.0621C14.6241 14.9371 16.5744 11.1499 15.4494 7.58679C14.7744 5.45019 13.1247 3.83739 11.0619 3.16239Z" fill="white"/>
</g>
<defs>
<clipPath id="clip0_97_2162">
<rect width="18" height="18" fill="white" transform="translate(0 0.5)"/>
</clipPath>
</defs>
</svg>
